<svg xmlns="http://www.w3.org/2000/svg" xml:space="preserve" width="1200" height="1200"><path fill="#FFF" d="m821 462-2 4q-4 4-10 6 5-3 7-8l1-4v-2l-1-2-5-7-9-3h-4l-4 2-2 3-1 2v6l2 5 8 6q-5 0-10-4l-4-5-1-3v-6l4-9 6-4h1l-30-16-3 4-2 7-2 7-2 7v-8l2-7q0-3 3-7l2-3h1c-23-12-53-25-56-26l-20-4-7 6-4 10q-3 6-2 12l1 5q0 3 3 5l-4-4-1-6a37 37 0 0 1 8-28q-13 1-25 6l-12 5-12 6-12 5a23 23 0 0 1-14 1h7l6-1 12-6 12-7 25-11q6-3 14-3 14 0 27 2l65 3c27 3 55 5 70 4q19-2 23-16 2-9-6-19l-10 8-3 6-2 7v-7a28 28 0 0 1 7-14l4-3-1-1-18-6-8 6q-5 3-6 9v3l1 2v1l3 5q3 6 10 8-6-1-11-7l-4-5-1-2v-1l-1-7 2-4 4-6 4-3-35-6-1 1-5 5-5 8q-3 3-3 8l-1 5 1 4-2-9 2-10 7-13-51-4q-17-1-34 2l-7 6-5 9q-2 6-1 11l1 5 3 3-4-3-2-5q-1-6 1-11l5-13-4 1q-12 3-22 9-11 7-22 11l-46 18-16 8-2 2-1 2-1 3-1 3-1 6v6l-1 6 1-6v-12l1-3 1-3 1-3 2-2 6-4 11-5 44-19 22-11q10-7 22-11 23-7 47-7c3-7 14-27 38-44-36 0-19 3-44 3s-40 16-29 29c0 0-6 0-8-13v-4q-17 13-34 21l-26 11c-17 6-32 11-40 24l-4 6c-14 22-39 64-122 142l-41 39c-59 54-78 73-125 119l-13 12a744 744 0 0 0-122 173l-23 44c-16 28-32 57-39 92-9 51 16 69 47 86 19 10 43 14 64 14h4l4-1h4l4-1a136 136 0 0 0 32-11q7-3 13-9l-12 11-19 9h10q37 0 104-12c56-11 108-27 111-28l17-7c-9-10-34-36-49-58-16-23-51-82-61-100l-5 9 1 1 1 3 1 4 1 3 1 14-2 19-2 7 1-7v-19l-2-13-1-3-2-3-16 34-6 20q-7 19-18 36a78 78 0 0 1-31 27l17-12 13-16q10-17 15-37l6-19a321 321 0 0 1 24-56l53-104c1-4 11-33 39-74 27-41 69-86 72-89l-22-14q-5-4-9-10l10 9a86 86 0 0 0 25 11l6 2 4 1v1c6-10 13-27 17-39l10-22c6-12 12-13 20-16l10-3 10-6c6-4 12-8 26-8q16 1 37 10 18 7 40 12c21 5 40 3 49-3q6-5 8-11-1-9-17-17l-5 4-4 7-1 7 1 4 4 3-5-1-4-4q-2-6 0-11t6-8l6-3-34-14-3 4-2 5-4 12v-7l2-6 3-5 4-3-42-16-9 11-3 8q-2 5-1 9l-1-9a42 42 0 0 1 7-17l2-3q-8-3-20-3l-14 1-28-2-13-5a69 69 0 0 0 27 3l26-4c2-2 9-9 21-12h-25l-5 1 5-1 5-1 28-1h4l1 1 16 2 35 15c21 11 43 21 64 18 2-1 14-4 13-19M335 714l-62 54-6 6-2 3-3 3-6 6-5 6-6 6-5 6-22 25-42 50 39-53 21-25 10-13 6-6 6-6 2-3 3-3 6-6 6-5 6-6 13-11 6-5 7-5 6-5 7-5 41-28zm191-234 5-6 5-6 3-3 2-3 3-2 2-1 2-1-1 4-5 6-3 3-3 2-3 3zm29-1-1 3-2 3-6 9-7 8-8 8-1-1 7-9 11-18 4-4 3-4h1zm27-19-2 5-2 4-3 9v9q1 6 4 9-4-3-6-8l-1-5v-5l3-10 4-9v-5h-1v-1l-1-2-3-10a27 27 0 0 1 5-20q-5 10-2 19l1 5 2 4 1 2v2h1z"/><linearGradient id="a" x1="1006" x2="1006" y1="722" y2="207" gradientUnits="userSpaceOnUse"><stop offset="0" style="stop-color:#fff"/><stop offset="1" style="stop-color:#fff"/><stop offset="1" style="stop-color:#e3eeff"/></linearGradient><path fill="url(#a)" d="m1151 337 11-16-2 18v2l-8 2q-7 4-1-6m-162 98 11-1q-5-3-7-9-2-9 4-14-11 2-17 10l-2 2-2 2-1 2-2 3-1 2-2 2-2 6 10-4zm22-26q5 3 7 9 3 10-5 16l8-1h1l3-1 3-3q5-3 6-8l4-7a84 84 0 0 0-27-5m-138 68 23-13a44 44 0 0 0-31-11q3 2 5 9zm295-47-3 1 1 2c4 44 25 70 34 79v117l-1 1v1l-2 1-1 1-1 2-3 3-1 1-1 1-5 6-2 2-1 1-1 1-1 1-3 3-1 1-1 2h-1l-2 2-2 2-1 2h-1l-1 1-1 1-1 1-1 1-1 1h-1l-1 2h-1l-1 1v1l-1 1h-1l-1 1h-1l-1 1v1l-1 1h-1l-1 1-1 1h-1l-1 1-1 1h-1v1h-1l-1 1-4 2c-17 8-35 8-44 7l37-43q19-25 31-54l3-7 2-8 2-7 2-8 1-8v-7l1-8v-8l-4-31-1-4-1-3-1-2-1-2-1-4-7-13q8 12 11 28t3 31v8l-1 7-1 8-1 8-2 7-2 7-2 8-3 7a247 247 0 0 1-52 75l-2 2v-1q4-10 5-22a108 108 0 0 0-2-33l-4-11 1 11-2 32-6 32v1l-11 10-1 2a102 102 0 0 1-60 29 86 86 0 0 1-47-6 126 126 0 0 1-52-46l-4-5-1-1-2-3-1-2-2-3-2-1-2-3-1-2-2-2-2-2-1-2-2-2-2-2-1-2-2-2-2-2-1-2-2-2-2-2-1-2-2-2-7-8-2-2-1-2-2-1-1-2-4-4-2-2-1-1-1-1-5-5-1-1-1-2-1-1-1-1-1-1h-1l-1-1-1-1-1-1v-1h-1l-1-1-4-4-38-47v-46c6-3 18-10 16-28l18-2-14 13a65 65 0 0 1 20-14c-5 7 2 24 7 28l-3 1-10-1-8-5-2-2-1-2-2-1-2-2 6 8 9 5q4 3 10 2l12-3 2-1 2-2 2-1 24-14 8 10 1 2-2 23 5 23a78 78 0 0 1-1-42l9 21q4 14 6 29a228 228 0 0 0-9-44l-6-14-9-12a49 49 0 0 0-20-13l-4-1 9-4q55-21 64-58 3-10 3-20l1-1 2-1 1-1 3-3 3-2 13-7 14-6 7-2 7-2-7 1-8 2-29 11-3 2-3 2h-1q0-13-5-25l7-5 11-5-20 5-10-16a102 102 0 0 0-56-35l-29-7q-13-10-12-11c1-1 22-1 39-5 17-3 25 7 25 7 0-5-5-10-5-10 20-1 31 5 31 5l-5-10c0-4 17-11 30-12 14 0 28-27 28-28 0 0 4 10 23 31 18 21 26 17 26 20s-9 8-9 8 7 0 15 5 26 30 26 30l-19-1 16 19c15 17 39 34 53 55 14 22 35 83 35 83 3-6 3-34 2-39 0-5-3-6-3-16 1-10 7-10 7-10s-7-1-7-7c1-6 8-11 8-11s-7-2-8-5c-1-2 11-10 11-10s-12 3-14 2q-1-3 14-11l6-5 6 2q4 1 6 7c4 9 5 25-2 33q-4 7-6 5-2-1-1-11l2-4q4-10 0-18-2-6-6-7c-5 0-5 6 0 10l4 5-2 9-1 5q-2 9 3 14l1 1q5 0 9-7c7-9 7-26 2-37q-3-7-8-9-7-1-6-2v-12l2-12 4-7 4 3a20 20 0 0 1 6 12v7-7l-1-7-4-6-4-3 3-2 5-2q3 0 5 3l3 5 2 7 1 26h1l-1-27-1-6-3-6-2-2-1-1-4-1h-2l-1 1h-2l-1 1h-1l-5 5-4 8-6-1s17-26 28-27q9 0 13 7l2 8v68c-5 42-31 56-32 57M974 269c2 9 14 29 20 26 7-3-21-30-20-26M854 551c-3-6-10-12-11-17l-2-14s-1 20 6 30c6 10 10 7 7 1m29-58-13 3-12 1q-6 0-11-3-5-4-8-10 0 7 6 12 2 3 6 4l7 1q6 1 13-2zm136-87-22 1-3 1-3 1-2 1-3 2-2 1-3 2-2 2-2 2a41 41 0 0 0-9 21l3-1h2l6-1h10l21-1 12-1h1l3-1 5-3 6-9 5-10 1-1-2-1q-10-4-22-5m-17 140-1 4-3 14 8-17v-8l-1-4a19 19 0 0 0-10-12q-8-4-15-3 7 2 13 6t8 10l1 7zm-31 52q-3 1-3 4l2 5q2 3 5 3l5-1-5-1-3-2-2-4zm10-24 3-8 2-7q2-3 6-5-5 1-7 4l-5 7-7 13-6 4-7 3-15-1a29 29 0 0 0 16 4l8-2 4-2zm34-120 3-1 3-2 5-3 5-4 4-4-5 3-3 1-2 2-6 2-2 2-3 1-11 2-12-1q4 3 12 3 6 1 12-1m-5-162s11 23 18 21c6-3-18-21-18-21m-27 108-4 2-3 3-7 6-5 8 6-7 7-5 16-7 4-1 4-1h5l4-1h18l-9-2h-18l-5 1-4 1-2 1h-2l-2 1zm-44 43v3l1 1v1l1 2 1 2 2 2 1 2 3 3q5 6 12 11l13 10 12 10q-5-7-11-12l-11-11-11-12-3-3-1-1-1-2-1-2v-1l-1-1v-9l4-7 9-12 25-20a90 90 0 0 0-28 17l-11 12-4 8q-2 5-1 9m-13 17 2 7-1-7-6-20 2 7 1 6zm-6 164q-3-2-2-4l-1-6 1-10-2 5-1 5 1 6 1 3zm15-40-10-7q-4-4-6-10v-11l4-12q-5 4-7 11-3 7-1 13 2 8 8 11 5 5 12 5m3-9q4 3 7 3h8l7-2 11-9-13 5q-6 3-12 2t-10-6l-6-12q0 7 3 14zm96 77h-12l-6 1-3 1-3 1a46 46 0 0 0-19 16l9-8a63 63 0 0 1 22-9zm6-45s-6 26-45 35c-30 8-42 3-46 0 22 18 56 8 77-6 22-13 14-29 14-29m5-5s-12-4-30-3-22 16-35 19c-14 3-21-1-30 4-8 5-6 14-6 14s11-10 20-9c10 1 28 1 36-8 9-9 26-18 45-17m7-36-3-6-2-2-2-2-9-7-11-5-11-2 9 7 19 11zm13-197s5 27 15 25c9-1-15-25-15-25m3 165 8 20c2 5 5 22 9 15 4-8-17-35-17-35m59-96q0-15-10-27a59 59 0 0 1 3 41l-1 3-1 4-2 6-11 27-5 14-1 14q3-14 10-26l12-27 3-7 1-3 1-4z"/><radialGradient id="b" cx="954" cy="451" r="52" gradientTransform="matrix(1 0 0 1.1852 0 -83)" gradientUnits="userSpaceOnUse"><stop offset="0" style="stop-color:#e3eeff"/><stop offset="1" style="stop-color:#fff"/></radialGradient><path fill="url(#b)" d="M971 400c-40 26-32 46-23 59s50 39 50 39-19 30-63-5a59 59 0 0 1 0-96c21-13 36 3 36 3"/><g fill="#F59377"><path d="M919 306q-15 0-23 7-6 7-6 13l8 10v-1l3-6 5-6 3-1 4-1-3 2-3 1-3 6-2 9v3q9 11 14 21c9 16 22 19 27 19 9-35-6-60-24-76"/><path d="M911 366c-15-27-40-63-74-70-25-4-39 2-45 8q-5 7-1 16c4 9 17 9 32 9q19-1 38 5 23 8 29 30 6 18-5 32c-14 18-31 21-53 21-15-1-24 13-27 19l11 5q6 3 10 11c17-2 99-16 116-64-8-1-21-5-31-22"/><path d="M886 321q1-5 7-12 6-6 20-7-15-11-28-15l-8-2-19-5-22-1-2 11 4 1q28 6 48 30m-38 82c-16 2-44-1-72-3l-48-3a587 587 0 0 1 72 37c4-8 14-24 32-23 21 0 36-2 49-18q8-12 4-28-6-19-26-26-17-5-36-4c-17-1-32-1-37-13q-6-11 2-21 6-8 18-10l-16-2c-26 15-39 35-44 44 21 2 98 8 117 20q17 11 14 30-6 18-29 20M474 783l3-2 2-2 2-2 2-1 1-1 2-3 2-2 2-3 2-2 3-6 4-5 3-6 4-6 3-6 6-11 3-6 3-6 5-13a584 584 0 0 0 26-83l-2 1-2-2c-6 7-23 26-42 61q-25 50-30 68l2-2z"/><path d="M760 693a425 425 0 0 1 10-138l10-21-3 1q-14 10-41 7a59 59 0 0 1-2 23q-3 14-10 26a291 291 0 0 0-17 47v3h1-1v-6l1-7 4-13 9-25 8-26a64 64 0 0 0 0-23l-7-1q-22-6-40-13-20-8-35-9c-12 0-16 3-22 7a62 62 0 0 1-22 10c-7 2-11 3-16 12l-9 22-14 32a831 831 0 0 1-35 101l-5 12-6 12-12 24-3 6-3 6-4 6-2 2-2 3-2 3-2 3-1 1-1 1-3 3-2 2-2 1-1 1h-1l-5 2h-2c-8 4-17 11-16 16q0 5 8 8c4 1 15 4 32-8a82 82 0 0 0 29-31v-2l1-2 2-5 5-7 6-7 5-6 20-27 3-5a87 87 0 0 1 10-28l6-8-9 19-2 10v1l13-16 6-6 6-6 6-6 6-6a170 170 0 0 0 32-38 290 290 0 0 0 31-69l1-8-1 8-1 9-5 16a262 262 0 0 1-52 87l-6 6-6 6-6 6-6 6-21 26-9 14-10 14-6 6-12 16v1c8 5 44 27 71 26l13-33 6-17 2-9 3-9a370 370 0 0 0 13-72 313 313 0 0 1-9 73l-2 9-3 9-16 54h-1c-1 7-13 73-7 124 6 49 13 57 16 58q1 1 4-1 4-4 4-14c2-13 5-31 24-41 28-13 85-73 102-111l5-14q1-8-1-15l-5-15q-6-15-16-29l-18-28-5-7-1-1-1-2-2-4-8-15a244 244 0 0 1-16-66 265 265 0 0 1-1-50l1-9 3-8-2 8-1 9 1 16a297 297 0 0 0 16 82l15 33 1 2 1 1 5 7a526 526 0 0 1 35 58l3 10a599 599 0 0 0 2-74zm-45-219 10 4c29 10 61 23 62 39l2-4 10-25c-20 0-39-9-58-19q-17-9-34-14c-18-5-31 0-38 4 12 2 20 5 37 11z"/><path d="M806 488h-2v1l-1 4-8 22-19 42-4 14q-4 15-5 30a469 469 0 0 0-1 99l4-22c12-36 25-90 25-91v-2h4l9-47-2-3z"/></g><g fill="#9EAE39"><path d="M814 913c-36-9-79 14-120 48l1 4 1 8 1 4v4l1 8v16l-1 8-2 16v4l-3 11c1 9 8 123 44 156h92c11-18 23-40 26-57 5-38-18-64-33-110-14-45 32-112-7-120"/><path d="M693 1005v-6l1-2v-18l-1-2v-4l-1-8v-2l-6 5c-32 28-65 46-90 66l6 1c24 4 54 9 84 6l2-6 1-3 1-4-1-1-3-2-3-5q-4-5-6-11l-1-2-1-3-2-6-1-6-1-6 1 6 2 6 3 5 1 3 1 2 11 13 1 1 1-10zm379-276q-28-1-33-4l-29 3 2 2 16 7 17 5a244 244 0 0 1 65 31 208 208 0 0 0-66-28l-17-4-17-7-16-7-2-1a124 124 0 0 1-73-57l-1-2-2-3-1-1-6-7-1-2-2-2-1-2-3-3v-1l-4-4-3-3-1-1-11-14-1-1-6-6v-1l-2-2-1-1-2-2-1-1-2-2-1-1-1-2h-1l-2-2v-1l-5-4v-1l-2-1v-1l-1-1-1-1-3-2v-1l-1-1h-1l-2-2-16 13 7 5 5 5 6 5 19 20 5 5 4 6 4 5 4 6 2 3 2 2 4 6 4 6 2 3 2 2q17 21 38 38l5 5 6 4 11 8 11 7 6 4 6 3q23 15 49 24l6 2 3 1 4 1a174 174 0 0 1 38 17l48 27a182 182 0 0 0 38 14q8 2 14 1-13 1-27-2l-26-10-50-25-38-15-3-1-3-1-7-2a309 309 0 0 1-97-54l-5-5-3-2-3-2-10-10-5-5-4-5-3-3-1-1-1-2-4-5-3-3-2-3-4-6-3-5-4-6-4-6-4-5-4-5-5-6-18-20-5-4-5-5-8-7-1 1-2-3s-9-9-21-10l-9 34q14 29 31 76c23 68 34 145 80 172s69 44 82 106c13 61 47 108 83 133 29 19 29 55 26 87h88q10-28 18-67V743l-3 1-15 4-29-1-29-3 57-2 13-4 6-4v-52a195 195 0 0 1-128 47m91 170-17-2h-4l-4-2-4-1-4-2-15-8-14-10-13-10q-12-11-26-19v-1l29 17 13 9 14 8 15 7 4 1 1 1h2l40 8q-8 4-17 4"/><path d="M1196 643v1l-1 1-1 1-1 2h-1l-1 2-1 1-2 2-1 1-1 1-1 1-1 1-1 1-3 3-1 1-1 1-1 1-1 1-1 1-1 1-1 1-4 4h-1l-1 1-1 1-1 1-1 1-1 1-1 1-2 1v1l-1 1h-1l-1 1-1 1-4 3-1 1h-1l-1 1h-1v1h-2a84 84 0 0 1-56 9c-4 4-16 15-38 23 14 2 40 3 72-7 41-11 67-33 76-42v-33z"/></g><g fill="#CCDB62"><path d="M1068 1113c-36-25-70-72-83-133-13-62-36-79-82-106s-57-104-80-172q-17-47-31-76l-15 54q-7 25-8 62c-1 29-3 59-12 81-18 39-77 101-106 114-16 8-18 23-20 36q-1 12-6 18-8 5-11 3c-6-3-15-12-21-65-5-46 4-106 7-122-28 1-62-19-72-26q-4 10-30 31-22 14-39 8-10-4-12-13c-3-10 13-20 19-23l4-26q-13 8-35 14l-26 51c5 4 15 16 21 32 7 19 42 82 77 120q44 47 52 59l9-3 14 1-1-4-1-3-5-11-7-9-5-4-2-1-3-2a165 165 0 0 1-36-34l18 17 20 14 3 2 2 1 6 4a52 52 0 0 1 15 21l1 3 1 7 8 1c25-20 58-38 90-66l6-5-1-6-1-7-4-16v-2l-1-2-1-3-3-8 3 7 2 4v2l1 2 4 15 2 8 1 4c41-34 84-57 120-48 39 8-7 75 7 120 15 46 38 72 33 110-3 17-15 39-26 57h100a609 609 0 0 0 117-39q21-9 39-25-6 11-15 18l-5 4-2 2-3 2-10 6-21 10-6 2-6 2-5 2-6 1a501 501 0 0 1-64 15h153c3-32 3-68-26-87"/><path d="M424 858c-5-14-14-24-18-29l-23 44 65 106a447 447 0 0 0 50 57q9 3 14 10 5 10 5 19 11-6 20-15 7-8 16-13-9-13-51-58c-34-36-70-99-78-121"/><path d="m497 1043-18 7c5 6 16 19 30 17q2-8-3-17-3-6-9-7m685 157h18v-67q-8 39-18 67"/></g><g fill="#512619"><path d="m320 722-7 5-6 5-7 5-6 5-13 11-6 6-6 5-6 6-3 3-2 3-6 6-6 6-10 13-21 25-39 53 42-50 22-25 5-6 6-6 5-6 6-6 3-3 2-3 6-6 60-56zm216-249 3-2 3-3 3-3 2-3 1-4-2 1-2 1-5 5-3 3-5 6-5 6h1l6-4zm16 5-4 4-2 5-6 9-3 4-7 9 1 1 8-8 7-8 6-9 2-3 1-3 1-5h-1zm30-25v-2l-1-2-2-4-1-5q-3-9 2-19a27 27 0 0 0-5 20l3 10 1 2v1h1v5l-4 9-3 10v5l1 5q2 5 6 8-3-3-4-9v-9l3-9 2-4 2-5v-7m536 2-1 4-2 6-11 27-5 14-1 14q3-14 10-26l12-27 3-7 1-3 1-4 1-15q0-15-10-27a59 59 0 0 1 3 41zm-192 5-6-20 2 7 1 6 4 14zm28-46-11 12-4 8q-2 4-1 9v3l1 1v1l1 2 1 2 2 2 1 2 3 3q4 6 12 11l13 10 12 10q-5-7-11-12l-11-11-11-12-3-3-1-1-1-2-1-2v-1l-1-1v-9l4-7 9-12 25-20a90 90 0 0 0-28 17m63 39 3-2 5-3 5-4 4-4-5 3-3 1-2 2-6 2-2 2-3 1-11 2-12-1q4 3 12 3 6 1 12-1z"/><path d="M1004 395h-4l-5 1-4 1-2 1h-2l-2 1-2 1h-1l-4 2-3 3-7 6-5 8 6-7 7-5 16-7 4-1 4-1h5l4-1h18l-9-2zM871 499l12-6-13 3-12 1q-6 0-11-3-5-4-8-10 0 7 6 12 2 3 6 4l7 1q6 1 13-2m180 64-4-5-2-2-9-7-11-5-11-2 9 7 19 11 10 6zm-83 39 2 5q2 3 5 3l5-1-5-1-3-2-2-4 1-4q-3 1-3 4m48 51-3 1-3 1a46 46 0 0 0-19 16l9-8a63 63 0 0 1 22-9l12-2h-12zm-15-103-3 14 8-17v-8l-1-4a19 19 0 0 0-10-12q-8-4-15-3 7 2 13 6 5 3 8 10l1 7v3zm-78 29q5 5 12 5l-10-7q-4-4-6-10v-11l4-12q-5 4-7 11-3 7-1 13 2 8 8 11m61-13 2-7q2-3 6-5-5 1-7 4l-5 7-7 13-6 4-7 3-15-1a29 29 0 0 0 16 4l8-2 4-2 8-10z"/><path d="M938 575q4 3 7 3h8l7-2 11-9-13 5q-6 3-12 2t-10-6l-6-12q0 7 3 14zm-20 29-2 5-1 5 1 6 1 3 3 1q-3-2-2-4l-1-6zm124-191 1-1-2-1a86 86 0 0 0-33-6l-11 2-3 1-3 1-2 1-3 2-2 1-3 2-2 2-2 2a41 41 0 0 0-9 21l2-6 2-2 1-2 2-3 1-2 2-2 2-2q6-8 17-10-6 5-4 14 2 6 7 9l-22 2-10 4 3-1h2l6-1h10l21-1 12-1h1l3-1 5-3 6-9zm-14 16-3 3-3 1h-2l-7 1q8-6 5-16-2-6-7-9a78 78 0 0 1 27 5l-4 7q-2 5-6 8m153 313-28 1-29 3 58 2 18-5v-9l-6 4zm-17 151-24-6h-2l-1-1-4-1-15-7-14-8-13-9-29-17v1q14 8 26 19l13 10 14 10 15 8 4 2 4 1 4 2h4l17 2q9 0 17-4zm-119 268-42 18a496 496 0 0 1-75 21h13l64-15 6-1 5-2 6-2 6-2 21-10 10-6 3-2 2-2 5-4q9-7 15-18-18 16-39 25m-30-562c-18 1-22 16-35 19-14 3-21-1-30 4-8 5-6 14-6 14s11-10 20-9c10 1 28 1 36-8 9-9 26-18 45-17 0 0-12-4-30-3m25 8s-6 26-45 35c-30 8-42 3-46 0 22 18 56 8 77-6 22-13 14-29 14-29m-199-87s-1 20 6 30c6 10 10 7 7 1s-10-12-11-17zm244 49c4-8-17-35-17-35l8 20c2 5 5 22 9 15m-5-175c9-1-15-25-15-25s5 27 15 25M974 269c2 9 14 29 20 26 7-3-21-30-20-26m36 23s11 23 18 21c6-3-18-21-18-21m158 138-3 1 1 2c4 44 25 70 34 79v-11c-9-11-24-33-27-67 5-3 18-13 27-33v-28c-5 42-31 56-32 57"/><path d="m1196 251 4-5v-2c-7 7-15 5-15 5s5-12 3-24c-3-11-23-33-26-37s0-31-19-58-45-32-43-34 17 1 17 1-4-11-25-17-38 0-38 0-8-9-28-19c-20-11-57-9-60-11-2-2 19-13 19-13l-29 3c-22 3-33 14-37 21s-13 6-23-1c-11-7-20-5-20-5 7 1 8 11 8 11s-46-4-71 4c-26 7-33 30-35 34-2 3-11 0-11 0l-2 7c-1 6-17 22-26 30-10 7-9 21-9 21l-10-16v23s-6-1-9-13c-3-11 2-21 2-21-21 18-16 50-8 61s3 19-7 27c-10 7-10 14-10 18-1 3-21 16-37 17 0 0-1 4 16 0q26-5 26-2c0 3-20 16-20 16s20-9 22-7l1 6c-16 8-13 17-13 17 4-7 11-6 11-6l1 14a204 204 0 0 1-61 33c-18 7-34 13-44 27l-4 6c-13 22-38 63-121 141L310 649v1l-15 14-4 4-9 9-1 2a748 748 0 0 0-141 213c-16 28-33 57-40 94-10 55 18 76 51 93 22 12 49 15 67 15h1l20-1 19-1a947 947 0 0 0 214-40c5 7 21 27 41 21q17-6 29-18 12-14 26-17l33 4c24 4 54 9 84 6 2 20 10 114 41 152h9c-35-33-42-147-43-156l3-11v-4l2-16 1-8v-16l-1-8v-4l-1-4-1-8-1-4-1-4-2-8-4-15-1-2v-2l-2-4-3-7 3 8 1 3 1 2v2l4 16 1 7 1 6v2l1 8v4l1 2v18l-1 2v6l-1 7-1 10-1-1-4-4-7-9-1-2-1-3-3-5-2-6-1-6 1 6 1 6 2 6 1 3 1 2 12 18 1 1-1 4-3 9a299 299 0 0 1-98-8l-1-7-1-3a47 47 0 0 0-15-21l-6-4-2-1-3-2a162 162 0 0 1-38-31l17 18 19 16 3 2 2 1 5 4a48 48 0 0 1 12 20l1 3 1 4-14-1-9 3q-8-12-52-59c-35-38-70-101-77-120-6-16-16-28-21-32l26-51q22-6 35-14l-4 26c-6 3-22 13-19 23q2 9 12 13 17 6 39-8 26-21 30-31c10 7 44 27 72 26-3 16-12 76-7 122 6 53 15 62 21 65q3 2 11-3 5-6 6-18c2-13 4-28 20-36 29-13 88-75 106-114 9-22 11-52 12-81q1-37 8-62l24-88c12 1 21 10 21 10l2 3 1-1 8 7 5 5 5 4 18 20 5 6 4 5 4 5 4 6 4 6 3 5 4 6 2 3 3 3 4 5 1 2 1 1 3 3 4 5 5 5 10 10 3 2 3 2 5 5a337 337 0 0 0 97 54l7 2 3 1 3 1 13 4 25 11 50 25q12 6 26 9 14 4 27 3-6 1-14-1l-13-3-25-11-48-27-38-17-4-1-3-1-6-2q-26-9-49-24l-6-3-6-4-11-7-11-8-6-4-5-5q-21-17-38-38l-2-2-2-3-4-6-4-6-2-2-2-3-4-6-4-5-4-6-5-5-19-20-6-5-5-5-7-5 16-13h1l1 2h1l1 1v1l1 1h1l1 1 1 1 1 1v1l2 1v1l5 4v1l2 2h1l1 2 1 1 2 2 1 1 2 2 1 1 2 2v1l3 3h1l2 3 1 1 2 3 1 1 2 2 1 1 5 7 1 1 3 3 4 4v1l3 3 1 2 2 2 1 2 6 7 1 1 2 3 1 2 3 4q32 45 70 53l2 1 16 7 17 7 17 4a241 241 0 0 1 51 18 253 253 0 0 0-50-21l-17-5-16-7-2-2a94 94 0 0 0 29-3q5 3 33 4 22 0 54-8c37-11 62-29 74-39v-10a187 187 0 0 1-148 49c22-8 34-19 38-23h3a84 84 0 0 0 55-9v-1h1l1-1h1l1-1 4-3 1-1 1-1h1l1-1v-1l2-1 1-1 1-1 1-1 1-1 1-1 1-1h1l5-5 1-1 1-1 1-1 1-1 1-1 1-1 3-3 1-1 1-1 1-1 2-2 1-1 1-1 1-1 1-2 1-1 1-1 1-1 1-1v-1l4-4v-10l-1 1v1l-2 1-1 1-1 2-3 3-1 1-1 1-5 6-2 2-1 1-1 1-1 1-3 3-1 1-1 2h-1l-2 2-2 2-1 2h-1l-1 1-1 1-1 1-1 1-1 1h-1l-1 2h-1l-1 1v1l-1 1h-1l-1 1h-1l-1 1v1l-1 1h-1l-1 1-1 1h-1l-1 1-1 1h-1v1h-1l-1 1-4 2c-17 8-35 8-44 7l37-43q18-25 31-54l3-7 2-8 2-7 2-8 1-8v-7l1-8v-8l-4-31-1-4-1-3-1-2-1-2-1-4-7-13q9 12 11 28 3 16 3 31v8l-1 7-1 8-1 8-2 7-2 7-2 8-3 7a247 247 0 0 1-52 75l-2 2v-1q4-10 5-22a108 108 0 0 0-2-33l-4-11 1 11-2 32-6 32v1l-11 10-1 2a102 102 0 0 1-60 29 86 86 0 0 1-47-6 126 126 0 0 1-52-46l-4-5-1-1-2-3-1-2-2-3-2-1-2-3-1-2-2-2-2-2-1-2-2-2-2-2-1-2-2-2-2-2-1-2-2-2-2-2-1-2-2-2-7-8-2-2-1-2-2-1-1-2-4-4-2-2-1-1-1-1-5-5-1-1-1-2-1-1-1-1-1-1h-1l-1-1-1-1-1-1v-1h-1l-1-1-4-4-38-47v-46c6-3 18-10 16-28l18-2-14 13a65 65 0 0 1 20-14c-5 7 2 24 7 28l-3 1-10-1-8-5-2-2-1-2-2-1-2-2 6 8 9 5q4 3 10 2l12-3 2-1 2-2 2-1 24-14 8 10 1 2-2 23 5 23a78 78 0 0 1-1-42l9 21q4 14 6 29a228 228 0 0 0-9-44l-6-14-9-12a49 49 0 0 0-20-13l-4-1 9-4q55-21 64-58 3-10 3-20l1-1 2-1 1-1 3-3 3-2 13-7 14-6 7-2 7-2-7 1-8 2-29 11-3 2-3 2h-1q0-13-5-25l7-5 11-5-20 5-10-16a102 102 0 0 0-56-35l-29-7q-13-10-12-11c1-1 22-1 39-5 17-3 25 7 25 7 0-5-5-10-5-10 20-1 31 5 31 5l-5-10c0-4 17-11 30-12 14 0 28-27 28-28 0 0 4 10 23 31 18 21 26 17 26 20s-9 8-9 8 7 0 15 5 26 30 26 30l-19-1 16 19c15 17 39 34 53 55 14 22 35 83 35 83 3-6 3-34 2-39 0-6-3-6-3-16 1-10 7-10 7-10s-7-1-7-7c1-6 8-11 8-11s-7-2-8-5c-1-2 11-10 11-10s-12 3-14 2q0-2 14-12l6-4 6 2q4 1 6 7c4 9 5 25-2 33q-4 7-6 5-2-1-1-11l2-4q4-10 0-18-2-6-6-7c-5 0-5 6 0 10l4 5-2 9-1 5q-3 9 3 14l1 1q4 0 9-7c7-9 7-26 2-37q-3-7-8-9-7-1-6-2v-12l2-12 4-7 4 3a20 20 0 0 1 6 12v7-7l-1-7-4-6-4-3 3-2 5-2q3 0 5 3l3 5 2 7 1 26h1l-1-27-1-6-3-6-2-2-1-1-4-1h-2l-1 1h-2l-1 1h-1l-5 5-4 8-6-1s17-26 28-27q9 0 13 7l2 8v-19l-11-9c-4-5 6-7 6-7l-4-7q-3-5 5-12m-390 40q-12 2-18 10-8 10-2 21c5 12 20 12 37 13q19-1 36 4 20 7 26 26 4 16-4 28c-13 16-28 18-49 18-18-1-28 15-32 23l-24-14-48-23 48 3c28 2 56 5 72 3q24-2 29-20 3-19-14-30c-19-12-96-18-117-20 5-9 18-29 44-44zm-327 759 18-7q6 1 9 7 5 8 3 17c-14 2-25-11-30-17m-55-192c8 22 44 85 78 121q42 45 51 58-9 5-16 13-9 9-20 15 0-10-5-19-5-7-14-10a654 654 0 0 1-52-60c-17-25-56-91-63-103l23-44c4 5 13 15 18 29m14-93c4-11 14-36 35-67 25-37 61-76 70-86l5 4 2 2 2-1 2-1-10 34q-7 26-18 50l-5 13-3 6-3 6-6 11-3 6-4 6-3 6-4 5-3 6-2 2-2 3-2 2-2 3-1 1-2 1-2 2-2 2-3 2h-1l5-40-2 2-4 3s-16 12-34 17m324-24q0 23-3 42l-11-25a254 254 0 0 0-27-43l-5-7-1-1-1-2-2-3-7-15-11-31a387 387 0 0 1-12-82l1-9 2-8-3 8-1 9-1 16a265 265 0 0 0 9 67 245 245 0 0 0 19 52l1 2 1 1 5 7 34 57 5 15q2 7 1 15l-5 14c-17 38-74 98-102 111-19 10-22 28-24 41q0 10-4 14-3 2-4 1c-3-1-10-9-16-58-6-51 6-117 7-124h1l6-18 10-36 3-9 2-9a374 374 0 0 0 9-73 312 312 0 0 1-13 72l-3 9-2 9-19 50c-27 1-63-21-71-26v-1l2-3 10-13 6-6 10-14 9-14 21-26 6-6 6-6 6-6 6-6 22-26a255 255 0 0 0 36-86l1-8-1 8-2 8-6 16a302 302 0 0 1-55 83l-6 6-6 6-6 6-6 6-13 16v-1l6-20 5-9-11 18-5 18-3 5-20 27-5 6-11 14-3 7v3c-2 3-9 16-29 30-17 12-28 9-32 8q-8-3-8-8c-1-5 8-12 16-16h3l4-2h1l1-1 2-1 2-2 3-3 1-1 1-1 2-3 2-3 2-3 2-2 4-6 3-6 3-6 12-24 6-12 5-12a818 818 0 0 0 35-101l14-32 9-22c5-9 9-10 16-12l10-4 12-6c6-4 10-7 22-7q15 1 35 9a281 281 0 0 0 47 14 52 52 0 0 1 0 23l-8 26a297 297 0 0 0-14 48v3h1-1v-6l2-7 4-12 11-25q7-12 10-26l2-23q27 3 41-7l3-1-10 21-5 15a253 253 0 0 0-7 61 491 491 0 0 0 6 89zm25-224c-1-16-33-29-62-39l-10-4-9-4c-17-6-25-9-37-11 7-4 20-9 38-4q17 5 34 14c19 10 38 19 58 19l-10 25zm56 65-18 13c-4-3-14-10-26-10h-4v2l-30 106a420 420 0 0 1 18-150l20-50 1-4v-1h2v47l2 3zm-35-101c-21 3-43-7-64-18l-35-15-16-2-1-1h-1l-9-1-22 2-5 1-5 1 5-1h25c-12 3-19 10-21 12l-13 3-27 1-13-3a70 70 0 0 0 27 7l28-1q12 0 20 3l-6 11-3 9 1 9q-1-5 1-9l8-15 4-4 17 7 10 3 15 6-4 3-3 5-2 13 4-12 2-5 3-4 34 14-6 3q-4 3-6 8t0 11l4 4 5 1-4-3-1-4 1-7 9-11q16 8 17 17-2 6-8 11c-9 6-28 8-49 3q-22-5-40-12-21-9-37-10c-14 0-20 4-26 8a55 55 0 0 1-20 9c-8 3-14 4-20 16l-10 22c-4 12-11 29-17 39v-1l-4-1-19-7-12-6-10-9q4 6 9 10l22 14c-3 3-45 48-72 89-28 41-38 70-39 74l-48 96-5 8a418 418 0 0 0-24 56l-6 19q-5 20-15 37a77 77 0 0 1-30 28q9-5 17-12 8-6 14-15 11-17 18-36l6-20 16-34 2 3 1 3 2 13v19l-1 7 2-7 2-19-2-17-1-4-1-3-1-1 5-9c10 18 45 77 61 100 15 22 40 48 49 58l-17 7c-3 1-55 17-111 28a682 682 0 0 1-111 11l16-8 12-11q-6 6-13 9a107 107 0 0 1-36 12h-4l-4 1h-4c-21 0-45-4-64-14-31-17-56-35-47-86 7-35 23-64 39-92l23-44a744 744 0 0 1 135-185l166-158c83-78 109-120 122-142l4-6c8-13 23-18 40-24l26-11q17-8 34-21v4c2 13 8 13 8 13-11-13 4-29 29-29s8-3 44-3c-24 17-35 37-38 44q-17 0-34 4l-13 3q-12 4-22 11l-22 11-44 19-17 9-2 2-1 3-1 3-1 3v12l-1 6 1-6v-6l1-6 1-3 1-3 1-2 2-2 5-4 11-4 46-18q11-4 22-11l26-10-1 2-4 11q-2 5-1 11l2 5 4 3-3-3-1-5q-1-6 1-11l5-9 7-6q17-3 34-2l51 4-7 13-2 10v5l2 4a23 23 0 0 1 3-17l10-13 1-1 35 6-4 3-4 6-2 4v3l1 4v1l1 2 4 5q5 6 11 7-6-2-10-8l-3-5v-1l-1-2v-3q1-6 6-9l8-6 18 6 1 1a29 29 0 0 0-11 17v7l2-7a26 26 0 0 1 13-14q8 9 6 19-4 14-23 16c-15 1-43-1-70-4l-65-3q-13-2-27-2-8 0-14 3l-25 11-12 7-12 6-13 1 7 1 7-2 12-5 12-6 12-5q12-5 25-6l-3 4a38 38 0 0 0-5 24l1 6 4 4q-3-2-3-5l-1-5a35 35 0 0 1 6-22l7-6 20 4c3 1 33 14 56 26h-1l-2 3q-3 3-3 7l-2 15 2-7 2-7 2-7 3-4 5 3q13 8 25 13h-1l-6 4-4 9v6l1 3 4 5 10 4-8-6-2-5v-6l1-2 2-3 4-2h4l9 3 5 7 1 2v2l-1 4q-2 5-7 8 6-1 10-6l2-4c1 15-11 18-13 19m73-9-8 5-3-15-5-9q11 0 20 4l11 7zm-55-20q-4-8-10-11l-11-5c3-6 12-20 27-19 22 0 39-3 53-21q11-14 5-32-6-22-29-30-19-6-38-5c-15 0-28 0-32-9q-4-9 1-16c6-6 20-12 45-8 34 7 59 43 74 70 10 17 23 21 31 22-17 48-99 62-116 64m117-70c-5 0-18-3-27-19l-14-24 2-9 3-6 6-3-4 1-3 1-5 6-3 6v1l-8-10q0-6 6-13 8-7 23-7c18 16 33 41 24 76m-85-102 27 7q13 5 28 15-14 1-20 7-6 7-7 12a90 90 0 0 0-52-31l2-11zm304 41-2 18v2l-8 2q-7 4-1-6z"/></g></svg>